<?xml version="1.0" standalone="no"?>
<!DOCTYPE svg PUBLIC "-//W3C//DTD SVG 20010904//EN"
 "http://www.w3.org/TR/2001/REC-SVG-20010904/DTD/svg10.dtd">
<svg version="1.0" xmlns="http://www.w3.org/2000/svg"
 width="48.000000pt" height="48.000000pt" viewBox="0 0 48.000000 48.000000"
 preserveAspectRatio="xMidYMid meet">

<g transform="translate(0.000000,48.000000) scale(0.100000,-0.100000)"
fill="#000000" stroke="none">
<path d="M28 469 c-10 -5 -18 -17 -18 -24 0 -11 13 -15 54 -15 l54 0 -14 -40
c-14 -42 -7 -81 18 -95 10 -6 11 -5 1 6 -19 20 -15 73 7 102 16 20 28 25 55
24 29 -2 35 -6 35 -25 0 -13 -10 -46 -22 -74 -22 -52 -19 -76 13 -87 12 -4 12
-2 1 12 -12 14 -10 26 12 81 14 35 26 69 26 75 0 6 21 11 50 11 l49 0 -13 -37
c-27 -77 -94 -209 -120 -241 -16 -18 -21 -30 -12 -26 32 12 86 102 150 247
l25 57 50 0 c55 0 62 9 31 40 -19 19 -33 20 -217 20 -116 0 -205 -5 -215 -11z"/>
<path d="M148 283 c7 -3 16 -2 19 1 4 3 -2 6 -13 5 -11 0 -14 -3 -6 -6z"/>
<path d="M316 229 c-8 -19 -28 -69 -43 -112 l-28 -77 -125 7 -125 6 16 -24
c16 -24 17 -24 218 -27 194 -2 241 3 241 28 0 6 -41 10 -95 10 -112 0 -109 -7
-64 122 30 89 34 131 5 67z"/>
<path d="M354 252 c3 -5 -1 -20 -9 -35 -11 -22 -11 -27 0 -27 7 0 16 7 19 16
9 25 7 54 -5 54 -5 0 -8 -4 -5 -8z"/>
<path d="M119 179 c-13 -25 2 -69 23 -69 9 0 9 3 0 12 -15 15 -15 51 0 66 9 9
9 12 0 12 -6 0 -16 -10 -23 -21z"/>
</g>
</svg>
